<svg xmlns="http://www.w3.org/2000/svg" viewBox="0 0 1600 1442" width="1600" height="1442">
  <rect width="1600" height="1442" fill="#e9e5de"/>
  <g id="piece-ground_window_side_l" data-piece="ground_window_side_l" data-dx="191.16" data-dy="-14.64" data-d0="-4.6530" data-dr="7.3146">
    <path class="mask" d="M959.38 647.57L959.38 647.56L959.38 647.56L959.38 647.56L965.69 645.20L965.69 645.20L965.69 645.20L965.69 645.20L965.69 645.20L965.69 645.20L965.69 645.20L1078.38 687.41L1078.38 687.41L1078.38 687.41L1078.38 687.42L1078.38 687.42L1078.38 770.16L1078.38 770.16L1078.38 770.16L1078.38 770.17L1072.08 772.53L1072.07 772.53L1072.07 772.53L1072.07 772.53L1072.07 772.53L1072.07 772.53L1072.07 772.53L959.38 730.31L959.38 730.31L959.38 730.31L959.38 730.31L959.38 730.31L959.38 647.57Z" fill="#e9e5de" stroke="none"/>
    <path class="lines" d="M959.38 730.31L959.38 647.56M959.38 647.56L965.69 645.20M1078.38 770.16L1078.38 687.41M1072.07 689.78L1078.38 687.41M1072.07 772.53L1072.07 689.78M1078.38 770.16L1072.07 772.53M1072.07 689.78L959.38 647.56M1072.07 772.53L959.38 730.31M1078.38 687.41L965.69 645.20" fill="none" stroke="#1a1a1a" stroke-width="1.1" stroke-linecap="round" stroke-linejoin="round"/>
  </g>
  <g id="piece-upper_window_side_l" data-piece="upper_window_side_l" data-dx="143.05" data-dy="-198.72" data-d0="-3.9975" data-dr="6.6601">
    <path class="mask" d="M914.30 417.89L914.30 417.89L914.31 417.89L920.61 415.53L920.61 415.53L920.61 415.53L920.61 415.53L920.62 415.53L1033.30 457.74L1033.30 457.74L1033.31 457.74L1033.31 457.74L1033.31 457.75L1033.31 552.31L1033.31 552.31L1033.31 552.32L1033.30 552.32L1027.00 554.68L1027.00 554.68L1027.00 554.68L1027.00 554.68L1026.99 554.68L914.31 512.47L914.31 512.46L914.30 512.46L914.30 512.46L914.30 512.46L914.30 417.89Z" fill="#e9e5de" stroke="none"/>
    <path class="lines" d="M914.30 512.46L914.30 417.89M914.30 417.89L920.61 415.53M1033.31 552.32L1033.31 457.74M1027.00 460.11L1033.31 457.74M1027.00 554.68L1027.00 460.11M1033.31 552.32L1027.00 554.68M1027.00 460.11L914.30 417.89M1027.00 554.68L914.30 512.46M1033.31 457.74L920.61 415.53" fill="none" stroke="#1a1a1a" stroke-width="1.1" stroke-linecap="round" stroke-linejoin="round"/>
  </g>
  <g id="piece-foundation" data-piece="foundation" data-dx="0.00" data-dy="299.44" data-d0="-1.5687" data-dr="4.2323">
    <path class="mask" d="M316.13 932.45L316.13 932.45L316.13 932.45L316.13 932.45L316.13 932.45L848.04 733.19L848.04 733.19L848.04 733.19L848.04 733.19L848.04 733.19L1244.72 881.79L1244.72 881.79L1244.72 881.79L1244.72 881.79L1244.72 905.43L1244.72 905.43L1244.72 905.43L1244.72 905.43L712.81 1104.69L712.81 1104.69L712.81 1104.69L712.81 1104.69L712.80 1104.69L316.13 956.09L316.13 956.09L316.13 956.09L316.13 956.08L316.13 932.45Z" fill="#e9e5de" stroke="none"/>
    <path class="lines" d="M316.13 956.09L316.13 932.45M316.13 932.45L848.04 733.19M1244.72 905.43L1244.72 881.79M712.81 1081.04L1244.72 881.79M712.81 1104.69L712.81 1081.04M1244.72 905.43L712.81 1104.69M712.81 1081.04L316.13 932.45M712.81 1104.69L316.13 956.09M1244.72 881.79L848.04 733.19" fill="none" stroke="#1a1a1a" stroke-width="1.1" stroke-linecap="round" stroke-linejoin="round"/>
  </g>
  <g id="piece-interfloor_slab" data-piece="interfloor_slab" data-dx="-225.08" data-dy="-134.91" data-d0="-1.0349" data-dr="3.6995">
    <path class="mask" d="M352.19 719.67L352.19 719.66L352.19 719.66L352.19 719.66L352.19 719.66L352.19 719.66L352.19 719.66L848.04 533.91L848.04 533.91L848.04 533.91L848.04 533.91L1091.45 625.10L1091.45 625.10L1091.46 625.10L1091.46 625.10L1091.46 625.10L1091.46 625.10L1091.46 636.92L1091.46 636.92L1091.46 636.92L1091.46 636.92L1091.46 636.92L1091.46 636.92L595.61 822.67L595.61 822.67L595.61 822.67L595.60 822.67L352.20 731.48L352.19 731.48L352.19 731.48L352.19 731.48L352.19 731.48L352.19 731.48L352.19 719.67Z" fill="#e9e5de" stroke="none"/>
    <path class="lines" d="M352.19 731.48L352.19 719.66M352.19 719.66L848.04 533.91M1091.46 636.92L1091.46 625.10M595.61 810.85L1091.46 625.10M595.61 822.67L595.61 810.85M1091.46 636.92L595.61 822.67M595.61 810.85L352.19 719.66M595.61 822.67L352.19 731.48M1091.46 625.10L848.04 533.91" fill="none" stroke="#1a1a1a" stroke-width="1.1" stroke-linecap="round" stroke-linejoin="round"/>
  </g>
  <g id="piece-ground_wall" data-piece="ground_wall" data-dx="-65.62" data-dy="262.23" data-d0="-0.8569" data-dr="3.5225">
    <path class="mask" d="M352.19 731.48L352.19 731.48L352.19 731.48L352.19 731.48L352.19 731.48L848.04 545.74L848.04 545.73L848.04 545.73L848.04 545.74L848.04 545.74L1208.65 680.82L1208.65 680.82L1208.66 680.82L1208.66 680.83L1208.66 881.79L1208.66 881.79L1208.66 881.79L1208.66 881.79L1208.66 881.79L712.81 1067.53L712.81 1067.54L712.81 1067.54L712.81 1067.54L712.81 1067.53L352.20 932.45L352.19 932.45L352.19 932.45L352.19 932.44L352.19 731.48Z" fill="#e9e5de" stroke="none"/>
    <path class="lines" d="M352.19 932.45L352.19 731.48M352.19 731.48L848.04 545.73M1208.66 881.79L1208.66 680.82M712.81 866.57L1208.66 680.82M712.81 1067.54L712.81 866.57M1208.66 881.79L712.81 1067.54M712.81 866.57L352.19 731.48M712.81 1067.54L352.19 932.45M1208.66 680.82L848.04 545.73" fill="none" stroke="#1a1a1a" stroke-width="1.1" stroke-linecap="round" stroke-linejoin="round"/>
  </g>
  <g id="piece-upper_window_front_l" data-piece="upper_window_front_l" data-dx="245.26" data-dy="-201.97" data-d0="-0.6997" data-dr="3.3663">
    <path class="mask" d="M918.81 546.90L918.81 546.90L918.81 546.90L1054.04 496.25L1054.04 496.24L1054.04 496.25L1054.05 496.25L1060.35 498.61L1060.35 498.61L1060.35 498.61L1060.35 498.61L1060.35 498.61L1060.35 498.61L1060.35 593.18L1060.35 593.18L1060.35 593.18L925.13 643.84L925.12 643.84L925.12 643.84L925.12 643.84L918.82 641.48L918.82 641.48L918.81 641.47L918.81 641.47L918.81 641.47L918.81 641.47L918.81 546.90Z" fill="#e9e5de" stroke="none"/>
    <path class="lines" d="M918.81 641.47L918.81 546.90M918.81 546.90L1054.04 496.24M1060.35 593.18L1060.35 498.61M925.12 549.27L1060.35 498.61M925.12 643.84L925.12 549.27M1060.35 593.18L925.12 643.84M925.12 549.27L918.81 546.90M925.12 643.84L918.81 641.47M1060.35 498.61L1054.04 496.24" fill="none" stroke="#1a1a1a" stroke-width="1.1" stroke-linecap="round" stroke-linejoin="round"/>
  </g>
  <g id="piece-upper_wall" data-piece="upper_wall" data-dx="-154.71" data-dy="-278.21" data-d0="-0.4356" data-dr="3.1032">
    <path class="mask" d="M352.19 542.35L352.19 542.34L352.19 542.34L352.19 542.34L352.19 542.34L848.04 356.59L848.04 356.59L848.04 356.59L848.04 356.59L848.04 356.59L848.04 356.59L848.04 356.59L848.04 356.59L1091.45 447.78L1091.45 447.78L1091.46 447.78L1091.46 447.78L1091.46 447.78L1091.46 447.78L1091.46 625.09L1091.46 625.10L1091.46 625.10L1091.46 625.10L1091.45 625.10L595.61 810.85L595.61 810.85L595.61 810.85L595.61 810.85L595.61 810.85L595.61 810.85L595.61 810.85L595.60 810.85L352.20 719.66L352.19 719.66L352.19 719.66L352.19 719.66L352.19 719.66L352.19 719.66L352.19 542.35Z" fill="#e9e5de" stroke="none"/>
    <path class="lines" d="M352.19 719.66L352.19 542.34M352.19 542.34L848.04 356.59M1091.46 625.10L1091.46 447.78M595.61 633.53L1091.46 447.78M595.61 810.85L595.61 633.53M1091.46 625.10L595.61 810.85M595.61 633.53L352.19 542.34M595.61 810.85L352.19 719.66M1091.46 447.78L848.04 356.59" fill="none" stroke="#1a1a1a" stroke-width="1.1" stroke-linecap="round" stroke-linejoin="round"/>
  </g>
  <g id="piece-ground_window_front_l" data-piece="ground_window_front_l" data-dx="308.85" data-dy="91.57" data-d0="-0.3624" data-dr="3.0310">
    <path class="mask" d="M1040.52 793.04L1040.52 793.04L1040.52 793.04L1040.52 793.04L1175.75 742.38L1175.75 742.38L1175.75 742.38L1175.75 742.38L1182.06 744.74L1182.06 744.74L1182.06 744.74L1182.06 744.74L1182.06 744.74L1182.06 744.75L1182.06 842.27L1182.06 842.27L1182.06 842.27L1182.06 842.27L1046.83 892.93L1046.83 892.93L1046.83 892.93L1046.83 892.93L1040.52 890.57L1040.52 890.57L1040.52 890.56L1040.52 890.56L1040.52 890.56L1040.52 890.56L1040.52 793.04Z" fill="#e9e5de" stroke="none"/>
    <path class="lines" d="M1040.52 890.56L1040.52 793.04M1040.52 793.04L1175.75 742.38M1182.06 842.27L1182.06 744.74M1046.83 795.40L1182.06 744.74M1046.83 892.93L1046.83 795.40M1182.06 842.27L1046.83 892.93M1046.83 795.40L1040.52 793.04M1046.83 892.93L1040.52 890.56M1182.06 744.74L1175.75 742.38" fill="none" stroke="#1a1a1a" stroke-width="1.1" stroke-linecap="round" stroke-linejoin="round"/>
  </g>
  <g id="piece-roof_slab" data-piece="roof_slab" data-dx="0.00" data-dy="-299.44" data-d0="0.1638" data-dr="2.5058">
    <path class="mask" d="M334.16 530.52L334.16 530.52L334.16 530.52L334.16 530.52L334.16 530.52L334.16 530.52L334.16 530.52L334.16 530.52L334.16 530.52L848.04 338.02L848.04 338.02L848.04 338.02L848.04 338.02L848.04 338.02L1109.48 435.96L1109.49 435.96L1109.49 435.96L1109.49 435.96L1109.49 435.96L1109.49 435.96L1109.49 435.96L1109.49 435.96L1109.49 447.77L1109.49 447.78L1109.49 447.78L1109.49 447.78L1109.49 447.78L1109.49 447.78L1109.49 447.78L1109.49 447.78L1109.49 447.78L595.61 640.28L595.61 640.28L595.61 640.28L595.61 640.28L595.60 640.28L334.16 542.34L334.16 542.34L334.16 542.34L334.16 542.34L334.16 542.34L334.16 542.34L334.16 542.34L334.16 542.34L334.16 530.52Z" fill="#e9e5de" stroke="none"/>
    <path class="lines" d="M334.16 542.34L334.16 530.52M334.16 530.52L848.04 338.02M1109.49 447.78L1109.49 435.96M595.61 628.46L1109.49 435.96M595.61 640.28L595.61 628.46M1109.49 447.78L595.61 640.28M595.61 628.46L334.16 530.52M595.61 640.28L334.16 542.34M1109.49 435.96L848.04 338.02" fill="none" stroke="#1a1a1a" stroke-width="1.1" stroke-linecap="round" stroke-linejoin="round"/>
  </g>
  <g id="piece-entrance_step" data-piece="entrance_step" data-dx="188.52" data-dy="246.52" data-d0="1.4247" data-dr="1.4019">
    <path class="mask" d="M929.18 975.84L929.18 975.84L1005.81 947.14L1005.81 947.14L1005.81 947.14L1005.81 947.14L1005.81 947.14L1005.81 947.14L1005.81 947.14L1005.81 947.14L1005.81 947.14L1055.39 965.71L1055.39 965.71L1055.39 965.71L1055.40 965.71L1055.40 965.71L1055.40 965.72L1055.40 976.35L1055.40 976.35L1055.39 976.35L978.77 1005.06L978.77 1005.06L978.76 1005.06L978.76 1005.06L978.76 1005.06L978.76 1005.06L978.76 1005.06L978.76 1005.06L978.76 1005.06L929.18 986.48L929.18 986.48L929.18 986.48L929.18 986.48L929.18 986.48L929.18 986.48L929.18 975.84L929.18 975.84Z" fill="#e9e5de" stroke="none"/>
    <path class="lines" d="M929.18 986.48L929.18 975.84M929.18 975.84L1005.81 947.14M1055.40 976.35L1055.40 965.71M978.76 994.42L1055.40 965.71M978.76 1005.06L978.76 994.42M1055.40 976.35L978.76 1005.06M978.76 994.42L929.18 975.84M978.76 1005.06L929.18 986.48M1055.40 965.71L1005.81 947.14" fill="none" stroke="#1a1a1a" stroke-width="1.1" stroke-linecap="round" stroke-linejoin="round"/>
  </g>
  <g id="piece-ground_door" data-piece="ground_door" data-dx="208.31" data-dy="216.01" data-d0="1.5155" data-dr="1.8725">
    <path class="mask" d="M936.85 982.60L936.84 982.60L936.84 982.60L936.84 982.60L936.84 982.60L936.84 982.60L936.84 837.79L936.84 837.79L936.84 837.79L936.84 837.79L936.84 837.79L936.84 837.79L936.84 837.79L936.84 837.79L995.44 815.83L995.44 815.83L995.44 815.83L995.44 815.83L995.44 815.83L995.45 815.84L1001.75 818.20L1001.75 818.20L1001.75 818.20L1001.75 818.20L1001.75 818.20L1001.75 818.20L1001.75 963.01L1001.75 963.01L1001.75 963.01L1001.75 963.01L1001.75 963.01L1001.75 963.01L1001.75 963.01L1001.75 963.01L943.15 984.96L943.15 984.96L943.15 984.96L943.15 984.96L943.15 984.96L943.15 984.96L936.85 982.60Z" fill="#e9e5de" stroke="none"/>
    <path class="lines" d="M936.84 982.60L936.84 837.79M936.84 837.79L995.44 815.83M1001.75 963.01L1001.75 818.20M943.15 840.15L1001.75 818.20M943.15 984.96L943.15 840.15M1001.75 963.01L943.15 984.96M943.15 840.15L936.84 837.79M943.15 984.96L936.84 982.60M1001.75 818.20L995.44 815.83" fill="none" stroke="#1a1a1a" stroke-width="1.1" stroke-linecap="round" stroke-linejoin="round"/>
  </g>
  <g id="piece-balcony_slab" data-piece="balcony_slab" data-dx="226.36" data-dy="45.22" data-d0="1.5875" data-dr="3.5431">
    <path class="mask" d="M595.61 822.67L595.61 822.67L595.61 822.67L595.61 822.67L595.61 822.66L595.61 810.85L595.61 810.85L595.61 810.85L595.61 810.85L595.61 810.85L1091.45 625.10L1091.46 625.10L1091.46 625.10L1091.46 625.10L1091.46 625.10L1091.46 625.10L1208.65 669.00L1208.65 669.00L1208.66 669.00L1208.66 669.00L1208.66 669.00L1208.66 669.00L1208.66 669.01L1208.66 680.82L1208.66 680.82L1208.66 680.82L1208.65 680.83L1208.65 680.83L712.81 866.57L712.81 866.57L712.81 866.57L712.81 866.57L712.81 866.57L712.81 866.57L595.61 822.67L595.61 822.67L595.61 822.67Z" fill="#e9e5de" stroke="none"/>
    <path class="lines" d="M595.61 822.67L595.61 810.85M595.61 810.85L1091.46 625.10M1208.66 680.82L1208.66 669.00M712.81 854.75L1208.66 669.00M712.81 866.57L712.81 854.75M1208.66 680.82L712.81 866.57M712.81 854.75L595.61 810.85M712.81 866.57L595.61 822.67M1208.66 669.00L1091.46 625.10" fill="none" stroke="#1a1a1a" stroke-width="1.1" stroke-linecap="round" stroke-linejoin="round"/>
  </g>
  <g id="piece-balcony_rail" data-piece="balcony_rail" data-dx="211.94" data-dy="-32.12" data-d0="2.0144" data-dr="3.7893">
    <path class="mask" d="M590.20 810.85L590.20 810.85L590.20 810.85L590.20 810.85L590.20 810.85L590.20 757.66L590.20 757.65L590.20 757.65L590.20 757.65L590.20 757.65L590.20 757.65L590.20 757.65L590.20 757.65L590.20 757.65L592.33 756.85L592.35 756.84L592.37 756.83L592.38 756.82L592.40 756.81L592.41 756.80L592.42 756.78L592.43 756.77L592.44 756.75L592.44 756.73L592.45 756.72L592.45 756.70L592.45 756.68L592.45 751.74L592.45 751.74L592.45 751.74L592.45 751.74L598.76 749.38L598.76 749.38L598.76 749.38L598.76 749.38L598.77 749.38L712.74 792.07L712.76 792.08L712.78 792.08L712.80 792.09L712.82 792.09L712.84 792.08L712.86 792.08L712.87 792.07L1017.40 678.00L1122.32 638.69L1122.33 638.69L1122.35 638.68L1122.36 638.67L1122.38 638.66L1122.39 638.64L1122.40 638.63L1122.41 638.61L1122.42 638.60L1122.43 638.58L1122.43 638.56L1122.44 638.55L1122.44 638.53L1122.44 638.51L1122.44 638.49L1122.43 638.48L1122.43 638.46L1122.42 638.44L1122.41 638.43L1122.40 638.41L1122.39 638.40L1122.38 638.39L1122.36 638.37L1122.35 638.36L1122.33 638.35L1122.32 638.35L1091.97 626.98L1091.95 626.97L1091.94 626.97L1091.92 626.97L1091.90 626.97L1091.88 626.97L1091.86 626.97L1091.84 626.98L1091.46 627.12L1091.46 627.12L1091.46 627.12L1091.45 627.12L1086.05 625.10L1086.05 625.10L1086.05 625.10L1086.05 625.10L1086.05 625.10L1086.05 571.91L1086.05 571.90L1086.05 571.90L1086.05 571.90L1086.05 571.90L1086.05 571.90L1086.05 571.90L1086.05 571.90L1086.05 571.90L1088.18 571.10L1088.20 571.10L1088.22 571.09L1088.23 571.08L1088.24 571.06L1088.26 571.05L1088.27 571.04L1088.28 571.02L1088.29 571.00L1088.29 570.99L1088.30 570.97L1088.30 570.95L1088.30 570.93L1088.30 565.99L1088.30 565.99L1088.30 565.99L1088.30 565.99L1094.61 563.63L1094.61 563.63L1094.61 563.63L1094.61 563.63L1094.62 563.63L1211.81 607.53L1211.81 607.53L1211.81 607.53L1211.81 607.53L1211.81 607.54L1211.81 607.74L1211.81 607.76L1211.82 607.78L1211.82 607.80L1211.83 607.81L1211.84 607.83L1211.85 607.85L1211.86 607.86L1211.87 607.88L1211.88 607.89L1211.90 607.90L1211.92 607.91L1211.93 607.91L1214.51 608.88L1214.51 608.88L1214.52 608.88L1214.52 608.89L1214.52 615.97L1214.52 615.97L1214.52 615.97L1214.52 615.98L1214.52 615.98L1214.52 615.98L1214.52 615.98L1214.19 616.10L1214.17 616.11L1214.15 616.12L1214.14 616.13L1214.12 616.14L1214.11 616.15L1214.10 616.17L1214.09 616.18L1214.08 616.20L1214.08 616.22L1214.07 616.24L1214.07 616.25L1214.07 616.27L1214.07 669.00L1214.07 669.00L1214.07 669.00L1214.07 669.00L1214.07 669.00L1214.07 669.00L1214.07 669.00L1214.07 669.00L1214.06 669.00L1208.66 671.03L1208.66 671.03L1208.66 671.03L1208.65 671.03L1203.95 669.27L1203.93 669.26L1203.91 669.26L1203.90 669.25L1203.88 669.25L1203.86 669.25L1203.84 669.26L1203.83 669.26L1203.81 669.27L1203.79 669.28L1203.78 669.29L1203.76 669.30L1203.75 669.31L1203.74 669.32L1203.73 669.34L1203.72 669.35L1203.71 669.37L1203.71 669.39L1203.70 669.40L1203.70 669.42L1203.70 669.44L1203.70 672.21L1203.70 672.21L1203.70 672.21L1203.70 672.21L1203.70 672.21L721.38 852.89L721.37 852.89L721.37 852.89L721.37 852.89L721.37 852.89L721.37 852.89L718.47 851.81L718.45 851.80L718.43 851.80L718.42 851.79L718.40 851.79L718.38 851.79L718.36 851.80L718.34 851.80L718.33 851.81L718.31 851.82L718.30 851.83L718.28 851.84L718.27 851.85L718.26 851.86L718.25 851.88L718.24 851.89L718.23 851.91L718.23 851.93L718.22 851.94L718.22 851.96L718.22 851.98L718.22 854.75L718.22 854.75L718.22 854.75L718.22 854.75L718.22 854.75L718.22 854.75L718.22 854.75L718.22 854.75L718.22 854.75L712.81 856.78L712.81 856.78L712.81 856.78L712.81 856.78L707.40 854.75L707.40 854.75L707.40 854.75L707.40 854.75L707.40 854.75L707.40 851.98L707.40 851.96L707.40 851.94L707.39 851.93L707.39 851.91L707.38 851.89L707.37 851.88L707.36 851.86L707.35 851.85L707.33 851.84L707.32 851.83L707.30 851.82L707.29 851.81L707.27 851.80L707.26 851.80L707.24 851.79L707.22 851.79L707.20 851.79L707.18 851.80L707.17 851.80L707.15 851.81L704.25 852.89L704.24 852.89L704.24 852.89L704.24 852.89L704.24 852.89L704.24 852.89L596.57 812.56L596.56 812.55L596.54 812.55L596.52 812.55L596.50 812.55L596.48 812.55L596.46 812.55L596.44 812.56L595.61 812.87L595.61 812.87L595.61 812.87L595.60 812.87L590.20 810.85Z" fill="#e9e5de" stroke="none"/>
    <path class="lines" d="M1203.70 672.21L1203.70 619.02M721.37 799.70L1203.70 619.02M721.37 852.89L721.37 799.70M1203.70 672.21L721.37 852.89M721.37 852.89L717.90 851.59M1091.46 626.79L1091.46 573.59M1193.86 611.95L1091.46 573.59M1122.70 638.49L1091.46 626.79M596.06 812.37L596.06 759.17M704.24 852.89L704.24 799.70M707.14 851.81L704.24 852.89M704.24 799.70L596.06 759.17M704.24 852.89L596.06 812.37M706.95 801.39L706.95 794.29M706.95 794.29L1208.21 606.52M1214.52 615.98L1214.52 608.88M713.26 796.66L1214.52 608.88M713.26 803.75L713.26 796.66M1214.52 615.98L713.26 803.75M713.26 796.66L706.95 794.29M713.26 803.75L706.95 801.39M1214.52 608.88L1208.21 606.52M1088.30 573.08L1088.30 565.99M1088.30 565.99L1094.61 563.63M1211.81 608.82L1211.81 607.53M1205.50 609.90L1211.81 607.53M1205.50 611.19L1205.50 609.90M1205.50 609.90L1088.30 565.99M1193.38 612.45L1088.30 573.08M1211.81 607.53L1094.61 563.63M592.45 758.83L592.45 751.74M592.45 751.74L598.76 749.38M715.96 794.57L715.96 793.28M709.65 795.64L715.96 793.28M709.65 802.74L709.65 795.64M711.55 802.03L709.65 802.74M709.65 795.64L592.45 751.74M709.65 802.74L592.45 758.83M715.96 793.28L598.76 749.38M1214.07 669.00L1214.07 615.81M1208.66 617.83L1214.07 615.81M1208.66 671.03L1208.66 617.83M1214.07 669.00L1208.66 671.03M1208.66 617.83L1207.46 617.38M1208.66 671.03L1203.85 669.23M1214.07 615.81L1212.86 615.36M707.40 854.75L707.40 801.55M707.40 801.55L708.60 801.10M718.22 854.75L718.22 801.55M712.81 803.58L718.22 801.55M712.81 856.78L712.81 803.58M718.22 854.75L712.81 856.78M712.81 803.58L707.40 801.55M712.81 856.78L707.40 854.75M718.22 801.55L717.02 801.10M1086.05 625.10L1086.05 571.90M1086.05 571.90L1087.25 571.45M1091.46 573.93L1092.06 573.70M1091.46 627.13L1091.46 573.93M1093.26 626.45L1091.46 627.13M1091.46 573.93L1086.05 571.90M1091.46 627.13L1086.05 625.10M590.20 810.85L590.20 757.65M590.20 757.65L592.00 756.98M595.61 759.68L596.21 759.45M595.61 812.87L595.61 759.68M597.41 812.20L595.61 812.87M595.61 759.68L590.20 757.65M595.61 812.87L590.20 810.85" fill="none" stroke="#1a1a1a" stroke-width="1.1" stroke-linecap="round" stroke-linejoin="round"/>
  </g>
  <g id="piece-canopy" data-piece="canopy" data-dx="234.39" data-dy="120.72" data-d0="2.4394" data-dr="2.9259">
    <path class="mask" d="M918.81 838.63L918.81 838.63L918.81 838.63L918.81 826.81L918.81 826.81L918.81 826.81L918.81 826.81L1013.47 791.35L1013.47 791.35L1013.47 791.35L1013.47 791.35L1013.47 791.35L1013.47 791.35L1013.47 791.35L1013.48 791.35L1073.42 813.80L1073.42 813.80L1073.43 813.81L1073.43 813.81L1073.43 813.81L1073.43 825.63L1073.43 825.63L1073.43 825.63L1073.43 825.63L978.77 861.09L978.76 861.09L978.76 861.09L978.76 861.09L978.76 861.09L978.76 861.09L978.76 861.09L978.76 861.09L918.82 838.63L918.82 838.63L918.81 838.63Z" fill="#e9e5de" stroke="none"/>
    <path class="lines" d="M918.81 838.63L918.81 826.81M918.81 826.81L1013.47 791.35M1073.43 825.63L1073.43 813.81M978.76 849.27L1073.43 813.81M978.76 861.09L978.76 849.27M1073.43 825.63L978.76 861.09M978.76 849.27L918.81 826.81M978.76 861.09L918.81 838.63M1073.43 813.81L1013.47 791.35" fill="none" stroke="#1a1a1a" stroke-width="1.1" stroke-linecap="round" stroke-linejoin="round"/>
  </g>
  <g id="piece-ground_window_side_r" data-piece="ground_window_side_r" data-dx="-246.45" data-dy="149.29" data-d0="2.6113" data-dr="2.2880">
    <path class="mask" d="M459.93 834.66L459.93 834.66L459.93 834.66L459.93 834.66L466.23 832.30L466.24 832.30L466.24 832.30L466.24 832.30L466.24 832.30L466.24 832.30L466.24 832.30L578.93 874.51L578.93 874.51L578.93 874.51L578.93 874.51L578.93 874.52L578.93 957.26L578.93 957.26L578.93 957.26L578.93 957.26L572.62 959.63L572.62 959.63L572.62 959.63L572.62 959.63L572.62 959.63L572.62 959.63L572.62 959.63L459.93 917.41L459.93 917.41L459.93 917.41L459.93 917.41L459.93 917.41L459.93 834.66Z" fill="#e9e5de" stroke="none"/>
    <path class="lines" d="M459.93 917.41L459.93 834.66M459.93 834.66L466.24 832.30M578.93 957.26L578.93 874.51M572.62 876.88L578.93 874.51M572.62 959.63L572.62 876.88M578.93 957.26L572.62 959.63M572.62 876.88L459.93 834.66M572.62 959.63L459.93 917.41M578.93 874.51L466.24 832.30" fill="none" stroke="#1a1a1a" stroke-width="1.1" stroke-linecap="round" stroke-linejoin="round"/>
  </g>
  <g id="piece-upper_balcony_door" data-piece="upper_balcony_door" data-dx="-108.40" data-dy="-66.17" data-d0="2.9249" data-dr="4.6580">
    <path class="mask" d="M661.87 643.16L661.87 643.16L661.87 643.16L661.87 643.15L661.87 643.15L797.10 592.50L797.10 592.50L797.10 592.50L797.10 592.50L797.11 592.50L803.41 594.86L803.41 594.86L803.41 594.86L803.41 594.86L803.41 594.86L803.41 594.86L803.41 724.89L803.41 724.89L803.41 724.90L803.41 724.90L803.41 724.90L668.18 775.55L668.18 775.55L668.18 775.55L668.18 775.55L668.18 775.55L661.88 773.19L661.88 773.19L661.87 773.19L661.87 773.19L661.87 773.19L661.87 773.19L661.87 643.16Z" fill="#e9e5de" stroke="none"/>
    <path class="lines" d="M661.87 773.19L661.87 643.15M661.87 643.15L797.10 592.50M803.41 724.90L803.41 594.86M668.18 645.52L803.41 594.86M668.18 775.55L668.18 645.52M803.41 724.90L668.18 775.55M668.18 645.52L661.87 643.15M668.18 775.55L661.87 773.19M803.41 594.86L797.10 592.50" fill="none" stroke="#1a1a1a" stroke-width="1.1" stroke-linecap="round" stroke-linejoin="round"/>
  </g>
  <g id="piece-upper_window_side_r" data-piece="upper_window_side_r" data-dx="-269.70" data-dy="-44.10" data-d0="3.2668" data-dr="2.6996">
    <path class="mask" d="M414.85 604.99L414.85 604.99L414.85 604.99L421.16 602.63L421.16 602.63L421.16 602.63L421.16 602.63L421.16 602.63L533.85 644.84L533.85 644.84L533.85 644.84L533.85 644.84L533.85 644.85L533.85 739.41L533.85 739.41L533.85 739.41L533.85 739.42L527.54 741.78L527.54 741.78L527.54 741.78L527.54 741.78L527.54 741.78L414.85 699.56L414.85 699.56L414.85 699.56L414.85 699.56L414.85 699.56L414.85 604.99Z" fill="#e9e5de" stroke="none"/>
    <path class="lines" d="M414.85 699.56L414.85 604.99M414.85 604.99L421.16 602.63M533.85 739.41L533.85 644.84M527.54 647.21L533.85 644.84M527.54 741.78L527.54 647.21M533.85 739.41L527.54 741.78M527.54 647.21L414.85 604.99M527.54 741.78L414.85 699.56M533.85 644.84L421.16 602.63" fill="none" stroke="#1a1a1a" stroke-width="1.1" stroke-linecap="round" stroke-linejoin="round"/>
  </g>
  <g id="piece-ground_window_front_r" data-piece="ground_window_front_r" data-dx="20.10" data-dy="203.71" data-d0="3.8663" data-dr="3.9185">
    <path class="mask" d="M743.01 904.49L743.01 904.49L743.01 904.49L743.01 904.49L743.01 904.49L743.01 904.49L891.76 848.76L891.77 848.76L891.77 848.76L891.77 848.76L898.07 851.12L898.07 851.12L898.08 851.13L898.08 851.13L898.08 851.13L898.08 851.13L898.08 948.65L898.08 948.65L898.08 948.65L898.08 948.65L898.08 948.65L898.08 948.65L749.33 1004.38L749.32 1004.38L749.32 1004.38L749.32 1004.38L743.01 1002.01L743.01 1002.01L743.01 1002.01L743.01 1002.01L743.01 1002.01L743.01 1002.01L743.01 904.49Z" fill="#e9e5de" stroke="none"/>
    <path class="lines" d="M743.01 1002.01L743.01 904.49M743.01 904.49L891.77 848.76M898.08 948.65L898.08 851.13M749.32 906.85L898.08 851.13M749.32 1004.38L749.32 906.85M898.08 948.65L749.32 1004.38M749.32 906.85L743.01 904.49M749.32 1004.38L743.01 1002.01M898.08 851.13L891.77 848.76" fill="none" stroke="#1a1a1a" stroke-width="1.1" stroke-linecap="round" stroke-linejoin="round"/>
  </g>
  <g id="assembled">
    <path d="M316.13 956.09L316.13 932.45M316.13 932.45L351.28 919.28M1244.72 905.43L1244.72 881.79M712.81 1081.04L948.51 992.75M1037.26 959.50L1244.72 881.79M712.81 1104.69L712.81 1081.04M1244.72 905.43L1055.12 976.45M977.90 1005.38L712.81 1104.69M712.81 1081.04L316.13 932.45M712.81 1104.69L316.13 956.09M1244.72 881.79L1208.40 868.18M352.19 932.45L352.19 731.48M352.19 731.48L353.34 731.05M1208.66 881.79L1208.66 680.82M712.81 866.57L1208.66 680.82M712.81 1067.54L712.81 866.57M1208.66 881.79L1019.54 952.63M930.75 985.89L712.81 1067.54M712.81 866.57L352.19 731.48M712.81 1067.54L352.19 932.45M1208.66 680.82L1206.93 680.18M936.84 973.35L936.84 846.41M1001.75 953.77L1001.75 852.71M943.15 975.10L943.15 848.78M1040.52 890.56L1040.52 838.10M1040.52 801.68L1040.52 793.04M1040.52 793.04L1175.75 742.38M1182.06 842.27L1182.06 744.74M1046.83 795.40L1182.06 744.74M1046.83 892.93L1046.83 836.14M1046.83 803.43L1046.83 795.40M1182.06 842.27L1046.83 892.93M1046.83 795.40L1040.52 793.04M1046.83 892.93L1040.52 890.56M1182.06 744.74L1175.75 742.38M743.01 1002.01L743.01 904.49M743.01 904.49L891.77 848.76M898.08 948.65L898.08 851.13M749.32 906.85L898.08 851.13M749.32 1004.38L749.32 906.85M898.08 948.65L749.32 1004.38M749.32 906.85L743.01 904.49M749.32 1004.38L743.01 1002.01M898.08 851.13L891.77 848.76M459.93 917.41L459.93 834.66M459.93 834.66L466.24 832.30M578.93 957.26L578.93 874.51M572.62 876.88L578.93 874.51M572.62 959.63L572.62 876.88M578.93 957.26L572.62 959.63M572.62 876.88L459.93 834.66M572.62 959.63L459.93 917.41M578.93 874.51L466.24 832.30M918.81 838.63L918.81 826.81M918.81 826.81L1013.47 791.35M1073.43 825.63L1073.43 813.81M978.76 849.27L1073.43 813.81M978.76 861.09L978.76 849.27M1073.43 825.63L978.76 861.09M978.76 849.27L918.81 826.81M978.76 861.09L918.81 838.63M1073.43 813.81L1013.47 791.35M929.18 986.48L929.18 975.84M929.18 975.84L939.63 971.93M1001.75 948.66L1005.81 947.14M1055.40 976.35L1055.40 965.71M978.76 994.42L1055.40 965.71M978.76 1005.06L978.76 994.42M1055.40 976.35L978.76 1005.06M978.76 994.42L929.18 975.84M978.76 1005.06L929.18 986.48M1055.40 965.71L1005.81 947.14M595.61 822.67L595.61 813.34M678.63 779.74L1089.73 625.75M1208.66 680.82L1208.66 671.49M718.00 852.81L720.88 851.73M724.34 850.43L728.95 848.70M732.41 847.41L738.18 845.25M742.21 843.74L747.40 841.79M752.02 840.06L756.63 838.34M761.82 836.39L765.85 834.88M768.74 833.80L775.08 831.42M778.54 830.13L783.73 828.18M788.34 826.46L792.95 824.73M796.99 823.22L802.18 821.27M806.21 819.76L811.40 817.82M816.01 816.09L820.63 814.36M824.66 812.85L829.85 810.91M832.73 809.83L839.08 807.45M842.54 806.15L847.73 804.21M852.34 802.48L856.95 800.75M862.14 798.81L866.18 797.30M869.06 796.22L875.40 793.84M878.86 792.55L884.63 790.39M888.66 788.88L893.85 786.93M897.31 785.64L902.50 783.69M906.54 782.18L911.72 780.24M916.34 778.51L920.95 776.78M926.14 774.84L930.17 773.32M933.06 772.24L939.40 769.87M942.86 768.57L948.63 766.41M952.66 764.90L957.85 762.96M962.46 761.23L966.50 759.72M970.53 758.21L975.72 756.26M980.34 754.53L984.95 752.81M988.98 751.29L994.17 749.35M997.06 748.27L1003.40 745.89M1006.86 744.60L1012.62 742.44M1016.66 740.93L1021.85 738.98M1026.46 737.25L1030.50 735.74M1034.53 734.23L1039.72 732.29M1043.18 730.99L1048.95 728.83M1052.98 727.32L1058.17 725.38M1061.63 724.08L1067.40 721.92M1070.86 720.62L1076.62 718.46M1080.66 716.95L1085.85 715.01M1090.46 713.28L1094.50 711.77M1097.38 710.69L1103.72 708.31M1107.18 707.02L1112.95 704.86M1116.98 703.34L1122.17 701.40M1126.78 699.67L1131.40 697.94M1134.86 696.65L1140.62 694.49M1144.66 692.98L1149.85 691.03M1154.46 689.31L1158.50 687.79M1161.96 686.50L1167.72 684.34M1171.18 683.04L1176.95 680.88M1180.98 679.37L1186.17 677.43M1190.78 675.70L1195.40 673.97M1198.86 672.67L1207.50 669.43M712.81 866.57L712.81 857.24M1208.66 680.82L712.81 866.57M707.04 852.59L704.73 851.72M712.81 866.57L595.61 822.67M352.19 731.48L352.19 719.66M352.19 719.66L353.34 719.23M678.63 779.74L1089.73 625.75M595.61 822.67L595.61 813.34M596.76 822.24L595.61 822.67M589.84 808.69L352.19 719.66M595.61 822.67L352.19 731.48M352.19 719.66L352.19 549.73M1091.46 565.99L1091.46 454.55M595.61 751.74L595.61 640.91M1089.73 625.75L678.63 779.74M589.84 808.69L352.19 719.66M918.81 641.47L918.81 546.90M918.81 546.90L1054.04 496.24M1060.35 593.18L1060.35 498.61M925.12 549.27L1060.35 498.61M925.12 643.84L925.12 549.27M1060.35 593.18L925.12 643.84M925.12 549.27L918.81 546.90M925.12 643.84L918.81 641.47M1060.35 498.61L1054.04 496.24M661.87 773.19L661.87 643.15M661.87 643.15L797.10 592.50M803.41 724.90L803.41 594.86M668.18 645.52L803.41 594.86M668.18 775.55L668.18 645.52M803.41 724.90L668.18 775.55M668.18 645.52L661.87 643.15M668.18 775.55L661.87 773.19M803.41 594.86L797.10 592.50M414.85 699.56L414.85 604.99M414.85 604.99L421.16 602.63M533.85 739.41L533.85 733.23M533.85 725.82L533.85 644.84M527.54 647.21L533.85 644.84M527.54 741.78L527.54 647.21M533.85 739.41L527.54 741.78M527.54 647.21L414.85 604.99M527.54 741.78L414.85 699.56M533.85 644.84L421.16 602.63M334.16 542.34L334.16 530.52M334.16 530.52L848.04 338.02M1109.49 447.78L1109.49 435.96M595.61 628.46L1109.49 435.96M595.61 640.28L595.61 628.46M1109.49 447.78L595.61 640.28M595.61 628.46L334.16 530.52M595.61 640.28L334.16 542.34M1109.49 435.96L848.04 338.02M1203.70 672.21L1203.70 619.02M721.37 799.70L1203.70 619.02M721.37 852.89L721.37 799.70M1203.70 672.21L721.37 852.89M721.37 852.89L717.90 851.59M1091.46 626.79L1091.46 573.59M1193.86 611.95L1091.46 573.59M1122.70 638.49L1091.46 626.79M596.06 812.37L596.06 759.17M704.24 852.89L704.24 799.70M707.14 851.81L704.24 852.89M704.24 799.70L596.06 759.17M704.24 852.89L596.06 812.37M706.95 801.39L706.95 794.29M706.95 794.29L1208.21 606.52M1214.52 615.98L1214.52 608.88M713.26 796.66L1214.52 608.88M713.26 803.75L713.26 796.66M1214.52 615.98L713.26 803.75M713.26 796.66L706.95 794.29M713.26 803.75L706.95 801.39M1214.52 608.88L1208.21 606.52M1088.30 573.08L1088.30 565.99M1088.30 565.99L1094.61 563.63M1211.81 608.82L1211.81 607.53M1205.50 609.90L1211.81 607.53M1205.50 611.19L1205.50 609.90M1205.50 609.90L1088.30 565.99M1193.38 612.45L1088.30 573.08M1211.81 607.53L1094.61 563.63M592.45 758.83L592.45 751.74M592.45 751.74L598.76 749.38M715.96 794.57L715.96 793.28M709.65 795.64L715.96 793.28M709.65 802.74L709.65 795.64M711.55 802.03L709.65 802.74M709.65 795.64L592.45 751.74M709.65 802.74L592.45 758.83M715.96 793.28L598.76 749.38M1214.07 669.00L1214.07 615.81M1208.66 617.83L1214.07 615.81M1208.66 671.03L1208.66 617.83M1214.07 669.00L1208.66 671.03M1208.66 617.83L1207.46 617.38M1208.66 671.03L1203.85 669.23M1214.07 615.81L1212.86 615.36M707.40 854.75L707.40 801.55M707.40 801.55L708.60 801.10M718.22 854.75L718.22 801.55M712.81 803.58L718.22 801.55M712.81 856.78L712.81 803.58M718.22 854.75L712.81 856.78M712.81 803.58L707.40 801.55M712.81 856.78L707.40 854.75M718.22 801.55L717.02 801.10M1091.46 573.93L1092.06 573.70M1091.46 627.13L1091.46 573.93M1093.26 626.45L1091.46 627.13M1091.46 573.93L1087.25 572.35M1091.46 627.13L1087.25 625.55M590.20 810.85L590.20 757.65M590.20 757.65L592.00 756.98M595.61 759.68L596.21 759.45M595.61 812.87L595.61 759.68M597.41 812.20L595.61 812.87M595.61 759.68L590.20 757.65M595.61 812.87L590.20 810.85" fill="none" stroke="#1a1a1a" stroke-width="1.1" stroke-linecap="round" stroke-linejoin="round"/>
  </g>
</svg>
